<?xml version="1.0" encoding="utf-8"?>
<!-- Generator: Adobe Illustrator 16.0.0, SVG Export Plug-In . SVG Version: 6.00 Build 0)  -->
<!DOCTYPE svg PUBLIC "-//W3C//DTD SVG 1.0//EN" "http://www.w3.org/TR/2001/REC-SVG-20010904/DTD/svg10.dtd">
<svg version="1.0" id="Layer_1" xmlns="http://www.w3.org/2000/svg" xmlns:xlink="http://www.w3.org/1999/xlink" x="0px" y="0px"
	 width="320px" height="69px" viewBox="0 0 320 69" enable-background="new 0 0 320 69" xml:space="preserve">
<g>
	<path fill="#FFFFFF" d="M130.816,58.162c-5.911,7.366-13.124,8.523-17.529,8.523h-9.417V32.271h6.611
		c4.607,0,7.814,2.735,9.115,5.577c0.803,1.79,1.204,4.949,1.305,7.159h2.805V17.431H120.9c0,2.421-0.501,4.631-1.305,6.314
		c-1.401,3.156-4.405,6.208-9.115,6.208h-6.611V2.381h9.516c8.615,0,14.128,3.894,17.031,8.207c0.3,0.528,3.006,4.634,4.006,11.578
		h2.806l-0.801-22.101H56.302L40.775,44.48L24.844,0.066H0.501v2.315c1.102,0,4.608,0.314,6.314,1.894
		c1.701,1.684,1.802,4.632,1.802,5.788v42.73c0,1.684-0.101,7.79-2.306,10.736C5.109,65.106,2.707,66.476,0,66.686V69h19.037v-2.314
		c-2.907,0-4.91-1.368-5.913-2.841c-1.302-1.79-2.002-4.736-2.002-10.63V5.645L33.262,69h2.001L57.204,5.645v61.041h-8.415V69
		h89.142l1.101-22.837h-2.804C135.828,49.32,134.524,53.635,130.816,58.162z M88.439,66.686H72.63V2.381h15.809V66.686z"/>
	<path fill="#FFFFFF" d="M173.45,2.381c7.813,0,11.12,2.629,13.822,7.576c1.905,3.474,3.609,8.316,4.408,12.209h2.807l-0.501-22.101
		h-52.793v2.315h8.414v64.304h-8.414V69h32.257v-2.314h-8.415V2.381H173.45z"/>
	<path fill="#FFFFFF" d="M253.762,41.036c1.717-1.939,3.004-4.737,2.524-8.597c-0.387-3.098-2.622-5.88-4.511-8.418
		c-1.801-2.421-4.244-5.263-3.604-8.417c0.584-2.884,4.941-4.493,8.293-2.686c-2.472,0.826-4.45,3.893-2.643,6.15
		c1.807,2.257,5.461,0.437,5.889-1.674c1.064-5.242-4.324-6.835-8.112-6.445c-6.297,0.645-11.118,6.123-8.474,12.535
		c1.372,3.337,5.635,6.56,6.85,9.313c2.843,6.459-2.823,13.402-10.097,9.854c-4.569-2.23-4.068-9.712-0.182-11.643
		c0.771-0.384,2.863-0.395,3.78-0.779c1.646-0.688-0.313-3.54-4.259-2.952c-4.838,0.721-8.216,7.319-5.111,13.044
		C237.545,46.666,249.153,46.233,253.762,41.036z"/>
	<path fill="#FFFFFF" d="M310.892,42.316c-2.005-0.472-2.048-3.637-1.622-6.268c5.815,0.744,10.8-3.735,10.635-8.775
		c-0.055-1.778-1.292-3.594-2.882-3.942c-4.519-0.988-7.658,1.458-9.913,4.478c-1.391,1.86-2.472,5.254-4.049,7.639
		c-2.178,3.297-4.507,5.041-8.483,6.868c0.776-3.436,1.757-7.291,2.807-11.222c2.117-0.838,7.951-3.804,10.116-11.608
		c1.836-6.614-1.543-7.957-6.029-7.908c-3.474,0.038-5.263,3.396-6.063,5.683c-0.802,2.286-3.016,11.513-4.619,17.891
		c-1.063,4.229-3.256,10.444,3.065,9.493c3.029-0.457,8.081-4.657,9.497-6.663c0.443,4.11,3.288,7.225,7.54,6.663
		c4.221-0.559,7.951-4.219,9.108-8.387C318.264,37.982,314.956,43.275,310.892,42.316z M311.432,28.884
		c0.803-1.68,1.973-3.99,4.15-3.759c0.611,3.839-1.234,9.723-6.135,10.028C309.929,33.155,310.533,30.764,311.432,28.884z
		 M300.167,21.004c0.398-1.399,0.781-2.545,1.143-3.524c0.764-1.86,2.182-3.377,3.443-2.45c0,0-0.207,3.34-1.401,6.564
		c-1.267,3.419-3.291,6.252-5.568,8.24C298.623,26.701,299.309,24.035,300.167,21.004z"/>
	<path fill="#FFFFFF" d="M258.27,25.717c0.845-0.008,2.746-0.008,3.762-0.001c-0.506,2.204-1.31,5.051-2.073,7.826
		c-1.142,4.156-4.293,12.036,2.523,11.103c3.615-0.495,5.9-2.769,5.99-6.232c-1.628,1.69-2.375,3.076-5.089,3.726
		c1.257-5.737,2.766-11.168,4.508-16.421c1.653-0.008,3.212-0.001,3.212-0.001c1.132-1.678-1.666-1.726-2.849-1.848
		c0.278-2.298,1.135-4.334,1.568-6.73c-0.302,0-0.909-0.074-1.209-0.074c-1.789,3.263-3.432,5.691-7.211,6.626
		C260.43,23.931,258.413,23.873,258.27,25.717z"/>
	<path fill="#FFFFFF" d="M290.789,24.05c-4.867-1.681-6.148,1.057-7.212,4.834c-1.003,3.567-2.011,6.399-3.599,8.956
		c-0.754,1.214-1.595,3.064-3.251,3.044c0.066-5.501,3.524-10.094,3.063-16.118c-1.556-1.24-3.619-1.416-5.349-0.728
		c-2.54,1.012-3.039,3.055-2.715,4.468c0.383-0.4,0.535-1.647,2.653-1.951c-0.557,2.74-1.329,5.053-2.161,8.059
		c-1.029,3.716-3.442,10.941,2.884,9.671c3.672-0.737,5.072-4.813,6.312-6.445c-0.783,2.756-1.115,6.16-1.929,9.038h-4.825
		c-0.988-0.784-2.558-0.678-3.738,0H231.05L214.98,0h-5.299l-19.145,55.18c-1.377,4.024-2.064,5.981-3.144,7.633
		c-1.866,2.886-4.614,3.817-7.657,3.92V69h21.6v-2.268c-4.026,0-5.794-0.825-6.186-1.034c-2.161-1.028-2.846-2.473-2.846-4.537
		c0-2.578,1.174-6.497,1.47-7.426l1.474-4.537h20.519l6.185,17.534H214.1V69h29.747v-2.268h-5.991l-6.012-17.537h37.444
		c-0.556,2.801,2.085,4.715,4.013,4.942c4.123,0.489,7.339-2.123,9.015-4.299c0.157-0.203,0.297-0.429,0.444-0.644l31.774-0.001
		l0.768-2.316h-31.205C287.265,40.328,287.975,30.603,290.789,24.05z M195.965,46.878l9.591-27.901l9.803,27.901H195.965z
		 M273.481,52.883c0.633-0.707,2.102-2.074,2.19-3.688h2.967C277.649,51.285,276.126,52.76,273.481,52.883z"/>
</g>
</svg>
