<?xml version="1.0" encoding="utf-8"?>
<!-- Generator: Adobe Illustrator 16.0.0, SVG Export Plug-In . SVG Version: 6.00 Build 0)  -->
<!DOCTYPE svg PUBLIC "-//W3C//DTD SVG 1.0//EN" "http://www.w3.org/TR/2001/REC-SVG-20010904/DTD/svg10.dtd">
<svg version="1.0" id="Layer_1" xmlns="http://www.w3.org/2000/svg" xmlns:xlink="http://www.w3.org/1999/xlink" x="0px" y="0px"
	 width="200px" height="200px" viewBox="0 0 200 200" enable-background="new 0 0 200 200" xml:space="preserve">
<g>
	<g>
		<radialGradient id="SVGID_1_" cx="43.376" cy="37.2256" r="214.1372" gradientUnits="userSpaceOnUse">
			<stop  offset="0" style="stop-color:#00C0F2"/>
			<stop  offset="0.1455" style="stop-color:#6C99D0"/>
			<stop  offset="0.36" style="stop-color:#3978BC"/>
			<stop  offset="0.6121" style="stop-color:#0C4481"/>
			<stop  offset="0.8242" style="stop-color:#1C2C5E"/>
		</radialGradient>
		<path fill-rule="evenodd" clip-rule="evenodd" fill="url(#SVGID_1_)" d="M100,200c55.078,0,100-44.922,100-100S155.078,0,100,0
			C44.921,0,0,44.922,0,100S44.921,200,100,200z"/>
		<linearGradient id="SVGID_2_" gradientUnits="userSpaceOnUse" x1="190.5986" y1="189.8018" x2="18.3269" y2="17.53">
			<stop  offset="0" style="stop-color:#1D2252"/>
			<stop  offset="1" style="stop-color:#324278"/>
		</linearGradient>
		<path fill-rule="evenodd" clip-rule="evenodd" fill="url(#SVGID_2_)" d="M104.463,17.46c47.48,0,86.205,38.725,86.205,86.205
			s-38.725,86.206-86.205,86.206s-86.206-38.726-86.206-86.206S56.982,17.46,104.463,17.46L104.463,17.46z M66.866,41.556
			c-8.355,5.082-15.609,11.804-21.319,19.709l33.229,78.462l14.889-32.989h10.802h10.802l14.89,32.989l33.225-78.455
			c-5.708-7.906-12.963-14.629-21.317-19.712l-26.793,60.215h-10.806H93.661L66.866,41.556L66.866,41.556z M125.3,34.086
			c-6.605-1.986-13.6-3.06-20.837-3.06c-7.235,0-14.227,1.072-20.83,3.057l20.834,46.671L125.3,34.086L125.3,34.086z M34.941,82.634
			c-2.024,6.662-3.117,13.723-3.117,21.031c0,29.116,17.285,54.321,42.117,65.889C60.061,140.873,47.189,111.857,34.941,82.634
			L34.941,82.634z M83.425,173.186c6.663,2.026,13.727,3.119,21.038,3.119c7.313,0,14.378-1.096,21.044-3.121l-21.04-45.718
			L83.425,173.186L83.425,173.186z M134.995,169.55c24.826-11.57,42.106-36.771,42.106-65.885c0-7.304-1.092-14.361-3.113-21.021
			C161.741,111.863,148.872,140.874,134.995,169.55z"/>
		<linearGradient id="SVGID_3_" gradientUnits="userSpaceOnUse" x1="103.5889" y1="107.9355" x2="132.2699" y2="169.3951">
			<stop  offset="0" style="stop-color:#A7B0AF"/>
			<stop  offset="0.18" style="stop-color:#99A1A5"/>
			<stop  offset="0.34" style="stop-color:#C6CBCE"/>
			<stop  offset="0.54" style="stop-color:#DBDDDF"/>
			<stop  offset="0.67" style="stop-color:#E8E9E9"/>
			<stop  offset="0.8" style="stop-color:#EDEDED"/>
			<stop  offset="0.93" style="stop-color:#F0EEEE"/>
			<stop  offset="1" style="stop-color:#F4F4F4"/>
		</linearGradient>
		<path fill-rule="evenodd" clip-rule="evenodd" fill="url(#SVGID_3_)" d="M103.178,13.894c43.324,0.281,82.311,37.909,82.311,85.39
			s-38.725,86.205-86.206,86.205c-47.48,0-85.288-38.309-85.288-85.789s41.638-85.524,84.4-86.088L103.178,13.894z M62.403,37.532
			c-8.355,5.082-15.609,11.803-21.319,19.708l33.228,78.463l14.89-32.99h21.604l14.89,32.99l33.226-78.456
			c-5.71-7.906-12.964-14.629-21.318-19.712L110.81,97.75H89.197L62.403,37.532L62.403,37.532z M120.837,30.062
			c-6.605-1.986-13.6-3.059-20.837-3.059c-7.235,0-14.227,1.071-20.83,3.057l20.833,46.67L120.837,30.062L120.837,30.062z
			 M29.761,78.252c-2.024,6.661-3.117,13.723-3.117,21.031c0,29.116,17.285,54.32,42.116,65.888L29.761,78.252L29.761,78.252z
			 M78.245,168.803c6.663,2.026,13.727,3.119,21.037,3.119c7.313,0,14.379-1.095,21.045-3.121l-21.041-45.718L78.245,168.803
			L78.245,168.803z M129.815,165.167c24.825-11.569,42.105-36.772,42.105-65.884c0-7.305-1.091-14.362-3.113-21.021L129.815,165.167
			z"/>
	</g>
	<linearGradient id="SVGID_4_" gradientUnits="userSpaceOnUse" x1="156.1553" y1="173.1133" x2="73.3666" y2="65.3239">
		<stop  offset="0" style="stop-color:#A7B0AF"/>
		<stop  offset="0.18" style="stop-color:#99A1A5"/>
		<stop  offset="0.34" style="stop-color:#C6CBCE"/>
		<stop  offset="0.54" style="stop-color:#DBDDDF"/>
		<stop  offset="0.67" style="stop-color:#E8E9E9"/>
		<stop  offset="0.8" style="stop-color:#EDEDED"/>
		<stop  offset="0.93" style="stop-color:#F0EEEE"/>
		<stop  offset="1" style="stop-color:#F4F4F4"/>
	</linearGradient>
	<path fill-rule="evenodd" clip-rule="evenodd" fill="url(#SVGID_4_)" d="M100,13.794c47.481,0,86.206,38.726,86.206,86.206
		S147.48,186.205,100,186.205c-47.48,0-86.206-38.725-86.206-86.205S52.519,13.794,100,13.794L100,13.794z M62.403,37.891
		c-8.355,5.082-15.609,11.804-21.319,19.708l33.228,78.463l14.89-32.989h21.604l14.89,32.989l33.226-78.456
		c-5.71-7.906-12.964-14.629-21.318-19.711L110.81,98.108H89.197L62.403,37.891L62.403,37.891z M120.837,30.42
		c-6.605-1.986-13.6-3.059-20.837-3.059c-7.235,0-14.227,1.072-20.83,3.057l20.833,46.671L120.837,30.42L120.837,30.42z
		 M30.478,78.969c-2.024,6.662-3.117,13.723-3.117,21.031c0,29.116,17.285,54.321,42.116,65.889L30.478,78.969L30.478,78.969z
		 M78.962,169.52c6.663,2.026,13.727,3.119,21.037,3.119c7.313,0,14.378-1.095,21.044-3.121L100.003,123.8L78.962,169.52
		L78.962,169.52z M130.532,165.884c24.826-11.569,42.106-36.771,42.106-65.884c0-7.305-1.092-14.362-3.114-21.021L130.532,165.884z"
		/>
</g>
</svg>
