<?xml version="1.0" encoding="utf-8"?>
<!-- Generator: Adobe Illustrator 18.1.1, SVG Export Plug-In . SVG Version: 6.00 Build 0)  -->
<svg version="1.1" id="Layer_1" xmlns="http://www.w3.org/2000/svg" xmlns:xlink="http://www.w3.org/1999/xlink" x="0px" y="0px"
	 viewBox="99 11 418 80" enable-background="new 99 11 418 80" xml:space="preserve">
<path fill-rule="evenodd" clip-rule="evenodd" fill="#FFFFFF" d="M302.8,85.1h7.4c0,0,2.2-0.2,3.4-1.5c1-1.1,1-3.2,1-3.2
	s-0.1-9.9,4.4-11.3c4.5-1.4,10.3,9.6,16.5,13.8c4.7,3.2,8.2,2.5,8.2,2.5l16.5-0.2c0,0,8.6-0.5,4.5-7.3c-0.3-0.6-2.4-5-12.2-14.2
	c-10.3-9.6-8.9-8,3.5-24.6c7.6-10.1,10.6-16.3,9.7-18.9c-0.9-2.5-6.5-1.8-6.5-1.8l-18.5,0.1c0,0-1.4-0.2-2.4,0.4c-1,0.6-1.6,2-1.6,2
	s-2.9,7.8-6.8,14.5c-8.3,14-11.6,14.8-12.9,13.9c-3.1-2-2.4-8.1-2.4-12.5c0-13.6,2.1-19.2-4-20.7c-2-0.5-3.5-0.8-8.7-0.9
	c-6.6-0.1-12.2,0-15.4,1.6c-2.1,1-3.7,3.3-2.7,3.5c1.2,0.2,4,0.7,5.5,2.7c1.9,2.6,1.8,8.4,1.8,8.4s1.1,16-2.5,18
	c-2.5,1.4-5.9-1.4-13.3-14.1c-3.8-6.5-6.6-13.7-6.6-13.7s-0.5-1.3-1.5-2.1c-1.2-0.9-2.8-1.1-2.8-1.1l-17.6,0.1c0,0-2.6,0.1-3.6,1.2
	c-0.9,1-0.1,3.1-0.1,3.1s13.8,32.3,29.4,48.5C286.5,86,302.8,85.1,302.8,85.1L302.8,85.1z"/>
</svg>
