<?xml version="1.0" encoding="utf-8"?>
<!-- Generator: Adobe Illustrator 16.0.0, SVG Export Plug-In . SVG Version: 6.00 Build 0)  -->
<!DOCTYPE svg PUBLIC "-//W3C//DTD SVG 1.0//EN" "http://www.w3.org/TR/2001/REC-SVG-20010904/DTD/svg10.dtd">
<svg version="1.0" id="Layer_1" xmlns="http://www.w3.org/2000/svg" xmlns:xlink="http://www.w3.org/1999/xlink" x="0px" y="0px"
	 width="418px" height="80px" viewBox="0 0 418 80" enable-background="new 0 0 418 80" xml:space="preserve">
<g>
	<path fill="#FFFFFF" d="M40.489,72.689c0,4.874-2.42,7.311-7.259,7.311H7.263c-4.737,0-7.105-2.437-7.105-7.311V7.361
		C0.157,2.454,2.525,0,7.263,0H33.23c4.839,0,7.259,2.454,7.259,7.361V72.689z M28.527,69.726V10.274H12.119v59.451H28.527z"/>
	<path fill="#FFFFFF" d="M83.939,80H72.183V38.134l-10.99,0.205V80H49.486V28.37h11.706v1.892c2.727-0.442,5.436-0.869,8.128-1.277
		c3.34-0.545,6.083-0.818,8.229-0.818c4.26,0,6.39,2.096,6.39,6.288V80z"/>
	<path fill="#FFFFFF" d="M104.132,80H92.63V0h11.502V80z"/>
	<path fill="#FFFFFF" d="M124.732,20.958h-11.706V8.895h11.706V20.958z M124.63,80h-11.502V28.37h11.502V80z"/>
	<path fill="#FFFFFF" d="M167.773,80h-11.757V38.134l-10.99,0.205V80H133.32V28.37h11.706v1.892
		c2.727-0.442,5.436-0.869,8.128-1.277c3.34-0.545,6.083-0.818,8.229-0.818c4.26,0,6.39,2.096,6.39,6.288V80z"/>
	<path fill="#FFFFFF" d="M209.537,73.61c0,4.26-2.198,6.39-6.594,6.39h-20.192c-4.396,0-6.594-2.13-6.594-6.39v-38.85
		c0-4.26,2.198-6.391,6.594-6.391h20.192c4.396,0,6.594,2.131,6.594,6.391v18.964l-3.22,3.22h-18.965v14.468h10.99v-8.588h11.194
		V73.61z M198.343,49.329V36.958h-10.99v12.371H198.343z"/>
	<path fill="#FFFFFF" d="M272.874,10.581h-20.705v23.668h17.688v10.377h-17.688V80h-11.96V0h32.665V10.581z"/>
	<path fill="#FFFFFF" d="M290.969,20.958h-11.706V8.895h11.706V20.958z M290.867,80h-11.503V28.37h11.503V80z"/>
	<path fill="#FFFFFF" d="M311.365,80h-11.501V0h11.501V80z"/>
	<path fill="#FFFFFF" d="M377.001,80h-11.604V38.134l-10.991,0.205V80h-11.654V38.134l-10.989,0.205V80h-11.708V28.37h11.708v1.892
		c2.727-0.442,5.436-0.886,8.126-1.329c3.308-0.511,6.051-0.767,8.232-0.767c2.69,0,4.428,0.767,5.213,2.301
		c2.862-0.442,5.725-0.902,8.588-1.381c3.783-0.613,6.679-0.92,8.691-0.92c4.258,0,6.389,2.096,6.389,6.288V80z"/>
	<path fill="#FFFFFF" d="M417.843,73.61c0,4.26-2.163,6.39-6.49,6.39h-19.68c-4.329,0-6.493-2.13-6.493-6.39V62.518h11.195v8.689
		h10.274v-8.179l-17.943-10.582c-2.35-1.396-3.526-3.271-3.526-5.622V34.761c0-4.26,2.199-6.391,6.594-6.391h19.476
		c4.329,0,6.492,2.131,6.492,6.391v10.376h-11.092v-7.974h-10.274v7.463l17.891,10.479c2.386,1.363,3.577,3.271,3.577,5.726V73.61z"
		/>
</g>
</svg>
