<?xml version="1.0" encoding="utf-8"?>
<!-- Generator: Adobe Illustrator 18.1.1, SVG Export Plug-In . SVG Version: 6.00 Build 0)  -->
<svg version="1.1" id="Layer_1" xmlns="http://www.w3.org/2000/svg" xmlns:xlink="http://www.w3.org/1999/xlink" x="0px" y="0px"
	 viewBox="99 11 418 80" enable-background="new 99 11 418 80" xml:space="preserve">
<g>
	<polyline fill-rule="evenodd" clip-rule="evenodd" fill="#FFFFFF" points="201.9,18.7 201.9,85.3 216.5,85.3 216.5,18.7 
		201.9,18.7 	"/>
	<path fill-rule="evenodd" clip-rule="evenodd" fill="#FFFFFF" d="M225.9,18.7v66.6H257c3,0,6-0.4,8.8-1.6c2.4-1,4.5-2.4,6.2-4.4
		c1.7-1.9,3-4.1,3.8-6.5c0.9-2.6,1.3-5.3,1.3-8.1c0-2.7-0.5-5.3-1.9-7.6c-1.3-2.4-3.3-4.1-5.7-5.3l-2-1l1.7-1.4
		c1-0.9,1.9-1.9,2.6-3.1c0.7-1.2,1.3-2.5,1.7-3.9c0.4-1.3,0.6-2.6,0.6-3.9c0-2.7-0.5-5.3-1.6-7.8c-1-2.4-2.5-4.5-4.3-6.3
		c-1.9-1.8-4-3.2-6.4-4.2c-2.5-1-5.2-1.5-7.9-1.5H225.9 M255.8,57.7c1.4,0,2.7,0.3,3.8,1.1c1,0.7,1.8,1.7,2.3,2.8
		c0.5,1.1,0.7,2.2,0.7,3.5c0,1.2-0.2,2.4-0.7,3.4c-0.5,1.1-1.3,2.1-2.3,2.8c-1.1,0.8-2.5,1.1-3.8,1.2h-15.7V57.7H255.8z M252.8,31.7
		c1.4,0,2.7,0.3,3.8,1.1c1,0.7,1.8,1.6,2.3,2.7c0.5,1.1,0.7,2.2,0.7,3.4c0,1.2-0.2,2.3-0.7,3.4c-0.5,1.1-1.3,2-2.3,2.7
		c-1.1,0.8-2.4,1.1-3.8,1.1h-12.7V31.7H252.8z"/>
	<path fill-rule="evenodd" clip-rule="evenodd" fill="#FFFFFF" d="M399.2,85.3h15v-0.8l-30.4-65.8h-6.6l-30.3,53.6h-19.2l29.6-52.9
		v-0.8h-49.7c0,0.9,0,1.8,0,2.7c0,1.3,0,2.5,0,3.8c0,1.3,0,2.5,0,3.8c0,0.9,0,1.8,0,2.7h26.9l-29.5,52.9v0.8h53.5l4.1-8.8h32.7
		L399.2,85.3 M390.5,64.3h-23.6l12.5-24.1L390.5,64.3z"/>
	<polyline fill-rule="evenodd" clip-rule="evenodd" fill="#FFFFFF" points="283.1,18.7 283.1,85.3 297.7,85.3 297.7,18.7 
		283.1,18.7 	"/>
</g>
</svg>
