<?xml version="1.0" encoding="utf-8"?>
<!-- Generator: Adobe Illustrator 16.0.0, SVG Export Plug-In . SVG Version: 6.00 Build 0)  -->
<!DOCTYPE svg PUBLIC "-//W3C//DTD SVG 1.0//EN" "http://www.w3.org/TR/2001/REC-SVG-20010904/DTD/svg10.dtd">
<svg version="1.0" id="Layer_1" xmlns="http://www.w3.org/2000/svg" xmlns:xlink="http://www.w3.org/1999/xlink" x="0px" y="0px"
	 width="300px" height="119.063px" viewBox="0 0 300 119.063" enable-background="new 0 0 300 119.063" xml:space="preserve">
<g>
	<g>
		<g>
			<path fill="#FFFFFF" d="M28.5,19.404l-7.543,31.266h-0.765L12.28,19.404H0l14.505,47.223v30.996h12.193V65.166l14.19-45.762H28.5
				z M56.46,38.464c-4.92,0-8.837,1.325-11.752,3.974s-4.372,6.208-4.372,10.676v29.913c0,4.9,1.421,8.804,4.264,11.704
				c2.841,2.898,6.631,4.351,11.368,4.351c4.919,0,8.782-1.406,11.587-4.217c2.805-2.812,4.209-6.685,4.209-11.622V53.44
				c0-4.398-1.43-7.993-4.292-10.785C64.611,39.862,60.94,38.464,56.46,38.464z M60.727,84.105c0,1.552-0.432,2.77-1.294,3.653
				c-0.864,0.883-2.028,1.323-3.497,1.323c-1.432,0-2.533-0.431-3.303-1.296c-0.772-0.867-1.156-2.091-1.156-3.681V52.681
				c0-1.261,0.413-2.28,1.238-3.055c0.826-0.775,1.9-1.163,3.221-1.163c1.433,0,2.588,0.388,3.469,1.163
				c0.88,0.774,1.322,1.793,1.322,3.055V84.105z M101.029,39.922V83.72c-1.017,1.263-2.131,2.297-3.347,3.107
				c-1.215,0.81-2.22,1.214-3.019,1.214c-1.016,0-1.75-0.307-2.204-0.919c-0.454-0.61-0.68-1.601-0.68-2.968V39.922H80.954v48.227
				c0,3.435,0.634,6.012,1.903,7.729c1.27,1.72,3.157,2.577,5.66,2.577c2.03,0,4.126-0.615,6.284-1.84
				c2.158-1.227,4.234-3.016,6.229-5.363v6.37h10.827V39.922H101.029z"/>
		</g>
	</g>
	<path fill="#EB2630" d="M269.376,47.63c-1.723,0-2.959,0.524-3.71,1.567c-0.753,1.047-1.127,2.779-1.127,5.195v5.84h9.564v-5.84
		c0-2.416-0.376-4.147-1.127-5.195C272.225,48.154,271.024,47.63,269.376,47.63z"/>
	<path fill="#EB2630" d="M229.569,47.421c-0.771,0-1.535,0.191-2.288,0.568c-0.754,0.379-1.498,0.965-2.231,1.757v35.958
		c0.88,0.938,1.734,1.613,2.563,2.026c0.826,0.415,1.699,0.622,2.618,0.622c1.322,0,2.297-0.403,2.92-1.216
		c0.625-0.811,0.938-2.137,0.938-3.976V53.369c0-1.947-0.385-3.424-1.157-4.433C232.159,47.928,231.037,47.421,229.569,47.421z"/>
	<path fill="#EB2630" d="M298.807,26.424c0-13.935-11.542-25.242-25.768-25.242c-20.302-0.838-41.075-1.212-62.263-1.174
		c-21.188-0.038-41.96,0.335-62.263,1.174c-14.224,0-25.767,11.307-25.767,25.242c-0.854,11.035-1.225,22.071-1.191,33.107
		c-0.033,11.038,0.337,22.073,1.191,33.108c0,13.936,11.543,25.243,25.768,25.243c20.303,0.839,41.075,1.211,62.263,1.172
		c21.188,0.039,41.961-0.333,62.263-1.172c14.226,0,25.768-11.308,25.768-25.243c0.854-11.035,1.225-22.07,1.191-33.108
		C300.031,48.495,299.66,37.458,298.807,26.424z M160.187,96.687h-12.191V29.819h-12.614V18.468h37.419v11.351h-12.614V96.687z
		 M203.555,96.687h-10.826v-6.371c-1.995,2.348-4.07,4.136-6.229,5.363c-2.157,1.225-4.253,1.839-6.282,1.839
		c-2.503,0-4.39-0.856-5.66-2.574c-1.269-1.719-1.904-4.296-1.904-7.731V38.985h10.827v44.231c0,1.369,0.227,2.359,0.681,2.971
		c0.452,0.61,1.187,0.917,2.203,0.917c0.798,0,1.803-0.402,3.02-1.215c1.214-0.809,2.33-1.846,3.346-3.106V38.985h10.826V96.687z
		 M245.231,84.73c0,4.104-0.85,7.243-2.545,9.419c-1.695,2.178-4.147,3.265-7.354,3.265c-2.115,0-4.002-0.421-5.661-1.264
		c-1.658-0.843-3.2-2.144-4.621-3.901v4.438h-10.933V18.468h10.933v25.179c1.458-1.761,3.007-3.099,4.646-4.016
		c1.642-0.917,3.3-1.376,4.979-1.376c3.426,0,6.043,1.234,7.848,3.698c1.805,2.465,2.709,6.055,2.709,10.767V84.73z M285.245,69.189
		h-20.706v10.883c0,3.034,0.357,5.14,1.071,6.312c0.714,1.176,1.932,1.762,3.656,1.762c1.796,0,3.051-0.497,3.765-1.489
		c0.715-0.992,1.072-3.188,1.072-6.584v-4.01h11.142v4.334c0,5.914-1.355,10.367-4.069,13.361
		c-2.713,2.993-6.765,4.489-12.154,4.489c-4.846,0-8.66-1.586-11.446-4.759c-2.785-3.174-4.178-7.537-4.178-13.092V54.498
		c0-5.01,1.529-9.088,4.589-12.242c3.058-3.152,7.009-4.729,11.854-4.729c4.952,0,8.758,1.458,11.417,4.379
		c2.657,2.919,3.987,7.116,3.987,12.592V69.189z"/>
</g>
</svg>
