<?xml version="1.0" encoding="utf-8"?>
<!-- Generator: Adobe Illustrator 18.1.1, SVG Export Plug-In . SVG Version: 6.00 Build 0)  -->
<svg version="1.1" id="Layer_1" xmlns="http://www.w3.org/2000/svg" xmlns:xlink="http://www.w3.org/1999/xlink" x="0px" y="0px"
	 viewBox="99 -29 418 156" enable-background="new 99 -29 418 156" xml:space="preserve">
<g>
	<g>
		<path fill="#FFFFFF" d="M107.9,97.9V96l4.6-1.3V61.4l-4.6-1.3v-1.9H126c9.2,0,13.7,2.9,13.7,10c0,4.6-1,7.4-5.8,8.7v0.2
			c5.8,1.1,7.8,4,7.8,9.7c0,7.6-4.7,11.2-13.8,11.2H107.9z M119,61.3v14.3h6.9c6.2,0,7.1-2.6,7.1-7.1c0-4.6-0.9-7.1-7-7.1H119z
			 M119,78.7v16.1h8.7c6.2,0,7.1-2.8,7.1-8c0-5.1-0.9-8.2-7-8.2H119z"/>
		<path fill="#FFFFFF" d="M185.9,60.1v-1.9h15.6v1.9l-4.6,1.3v33.3l4.6,1.3v1.9h-15.6V96l4.6-1.3V61.4L185.9,60.1z"/>
		<path fill="#FFFFFF" d="M207.2,60.1v-1.9h15.6v1.9l-4.6,1.3v33.2h14.2c1.3-4.4,3.3-7.8,3.3-7.8l2.2,0.4c0,0-0.6,4.9-0.6,7.5v3.2
			h-30.2V96l4.6-1.3V61.4L207.2,60.1z"/>
		<path fill="#FFFFFF" d="M242.3,60.1v-1.9h15.6v1.9l-4.6,1.3v33.2h14.2c1.3-4.4,3.3-7.8,3.3-7.8l2.2,0.4c0,0-0.6,4.9-0.6,7.5v3.2
			h-30.2V96l4.6-1.3V61.4L242.3,60.1z"/>
		<path fill="#FFFFFF" d="M277.4,60.1v-1.9H293v1.9l-4.6,1.3v33.3L293,96v1.9h-15.6V96l4.6-1.3V61.4L277.4,60.1z"/>
		<path fill="#FFFFFF" d="M318.2,57.6l14.7,37.1l3.9,1.3v1.9h-15.8v-1.9l4.6-1.3l-3.5-9.4h-14.5l-3.6,9.4l4.6,1.3v1.9h-12.9v-1.9
			l4.1-1.3l14.5-36.6L318.2,57.6z M314.9,66.1l-6.1,16.3h12.4l-6-16.3H314.9z"/>
		<path fill="#FFFFFF" d="M365.9,60.1v-1.9H379v1.9l-4.5,1.3v36.6h-3.4l-22.9-31.4v28.3l4.5,1.3v1.9h-13.2v-1.9l4.6-1.3V61.4
			l-4.6-1.3v-1.9h10.8l20.1,27.6V61.4L365.9,60.1z"/>
		<path fill="#FFFFFF" d="M384.5,68.9l-2.2-0.5c0,0,0.6-4.6,0.6-7.2v-3h33.5v3c0,2.6,0.6,7.2,0.6,7.2l-2.2,0.5c0,0-2-3-3.3-7.4h-8.6
			v33.2l5,1.3v1.9h-16.6V96l5-1.3V61.5h-8.6C386.4,65.9,384.5,68.9,384.5,68.9z"/>
		<polygon fill="#FFFFFF" points="419.2,77.6 424.4,77.6 426.6,79.8 421.8,84.2 417,79.8 		"/>
		<path fill="#FFFFFF" d="M498.1,61.4l-4.6-1.3v-1.9H507v1.9l-4.6,1.3v28c-1.9,5.7-7.1,9.1-14.9,9.1c-7.8,0-13.5-2.7-15.7-8.5V61.4
			l-4.6-1.3v-1.9h15.6v1.9l-4.6,1.3v25.6c0,4.9,3.9,8,9.5,8c5.7,0,10.4-2.9,10.4-8.2V61.4z"/>
		<path fill="#FFFFFF" d="M176.6,100.1c2.1,3.2,4.3,5,6.2,5.7h8.7l-0.4-1.9c0,0-4.5-0.4-9.9-8l-12.5-17.7l-5.2,2.6L176.6,100.1z"/>
		<g>
			<polygon fill="#FFFFFF" points="156.8,80.7 156.8,77.6 156.8,61.5 156.8,58.2 145.7,58.2 145.7,60.1 150.3,61.4 150.3,94.7 
				145.7,96 145.7,97.9 161.4,97.9 161.4,96 156.8,94.7 			"/>
		</g>
		<path fill="#FFFFFF" d="M163.8,61.3c6.1,0,7,3.5,7,8.1c0,4.5-0.9,8.1-7.1,8.1h-6.9v3.1h8.8l6.1-1.8c4.9-1.3,5.8-5,5.8-9.7
			c0-7.1-4.6-11-13.7-11h-18.1v1.9l4.1,1.2h6.9H163.8z"/>
		<g>
			<path fill="#FFFFFF" d="M457.6,88.2l-4.8-9.8l-2.7,0.9l-3.1,1.4l5.3,11.6c1.4,3.2,3.2,5,5,5.7h8.5V96
				C465.7,96,461.3,95.8,457.6,88.2z"/>
			<polygon fill="#FFFFFF" points="440,80.7 440,77.6 440,61.5 440,58.2 428.9,58.2 428.9,60.1 433.5,61.4 433.5,94.7 428.9,96 
				428.9,97.9 444.6,97.9 444.6,96 440,94.7 			"/>
		</g>
		<path fill="#FFFFFF" d="M447,61.3c6.1,0,7,3.5,7,8.1c0,4.5-0.9,8.1-7.1,8.1H440v3.1h8.8l6.1-1.8c4.9-1.3,5.8-5,5.8-9.7
			c0-7.1-4.6-11-13.7-11h-18.1v1.9l4.1,1.2h6.9H447z"/>
	</g>
</g>
<g>
	<path fill="#FFFFFF" d="M328,33.1v-3.4c0-4.2-1.7-8.2-4.6-11.2l0,0l-4,3.2l0.3,0.3c2.1,2.1,3.2,4.8,3.2,7.8v3.1
		c0,4.8-3.9,8.7-8.7,8.7h-23.4V-9.1h23.4c4.8,0,8.7,3.9,8.7,8.7v3c0,2.9-1.1,5.7-3.2,7.8l-2.2,2.2l-4.2-4.2h-12.7l-7.9,7.9
		l14.2,14.2l16.5-16.5c3-3,4.7-7,4.7-11.2v-3.3c0-7.5-6.1-13.6-13.6-13.6h-28.8v60.8h28.8C321.9,46.6,328,40.5,328,33.1z
		 M311.1,13.4l2.7,2.7l-7,7l-7-7l2.7-2.7H311.1z"/>
	<polygon fill="#FFFFFF" points="269,-10.6 276.2,-9.5 276.2,41.9 269,43 269,46.6 281.4,46.6 281.4,-14.2 269,-14.2 	"/>
	<path fill="#FFFFFF" d="M332.2-0.6v3.3c0,5-1.9,9.7-5.5,13.2l-0.2,0.2l0.3,0.3c3.5,3.5,5.5,8.2,5.5,13.2v3.4
		c0,5.6-2.9,10.6-7.2,13.6h7.6c3-3.7,4.8-8.4,4.8-13.6v-3.4c0-4.9-1.5-9.6-4.2-13.5c2.7-3.9,4.2-8.6,4.2-13.5v-3.3
		c0-5.2-1.8-9.9-4.8-13.6H325C329.4-11.3,332.2-6.3,332.2-0.6z"/>
</g>
<g>
	<path fill="#FFFFFF" d="M205.6,109.2c0-0.4,0.1-0.7,0.2-1.1c0.1-0.3,0.3-0.6,0.5-0.8c0.2-0.2,0.5-0.4,0.9-0.5
		c0.3-0.1,0.7-0.2,1.2-0.2h3.2v9.3h-1.1v-4.1h-1.2c-0.2,0-0.5,0-0.7,0.1c-0.2,0-0.4,0.1-0.6,0.2c-0.2,0.1-0.3,0.3-0.5,0.5
		c-0.1,0.2-0.3,0.4-0.4,0.7l-0.7,2.6h-1.2l0.8-2.7c0.1-0.4,0.3-0.7,0.5-1c0.2-0.3,0.5-0.5,0.9-0.6c-0.5-0.2-1-0.4-1.2-0.9
		C205.7,110.2,205.6,109.8,205.6,109.2z M210.4,111v-3.5h-1.8c-0.3,0-0.5,0-0.7,0.1c-0.2,0.1-0.4,0.2-0.6,0.3s-0.3,0.3-0.4,0.6
		c-0.1,0.2-0.1,0.5-0.1,0.8c0,0.4,0.1,0.7,0.2,0.9c0.1,0.2,0.3,0.4,0.4,0.5c0.2,0.1,0.4,0.2,0.6,0.3c0.2,0,0.4,0.1,0.6,0.1H210.4z"
		/>
	<path fill="#FFFFFF" d="M216.4,115.9v-9.3h1.2v3.9h1.6c0.1,0,0.3,0,0.5,0c0.2,0,0.3-0.1,0.5-0.2c0.1-0.1,0.3-0.3,0.4-0.4
		c0.1-0.2,0.2-0.4,0.3-0.8l0.6-2.4h1.1l-0.6,2.5c-0.1,0.5-0.3,0.8-0.5,1.1c-0.2,0.3-0.5,0.5-0.8,0.6c0.5,0.1,0.8,0.3,1.1,0.6
		c0.3,0.3,0.4,0.7,0.5,1.1l0.8,3.3H222l-0.8-3c-0.1-0.3-0.2-0.6-0.4-0.8c-0.1-0.2-0.3-0.4-0.5-0.5c-0.2-0.1-0.3-0.2-0.5-0.2
		c-0.2,0-0.4-0.1-0.5-0.1h-1.7v4.5H216.4z"/>
	<path fill="#FFFFFF" d="M227.5,106.6l1.5,3.9l0.9,2.4h0.1l0.8-2.4l1.4-3.9h1.2l-3,8.1c-0.2,0.5-0.4,0.9-0.7,1.1
		c-0.3,0.2-0.6,0.3-1,0.3c-0.1,0-0.3,0-0.6,0c-0.2,0-0.6-0.1-1-0.2l0.2-0.9c0.2,0,0.4,0.1,0.6,0.1c0.2,0,0.3,0,0.5,0
		c0.2,0,0.4,0,0.6-0.1c0.2-0.1,0.3-0.3,0.4-0.6l0.2-0.7h-0.4l-2.8-7H227.5z"/>
	<path fill="#FFFFFF" d="M239.6,115.9v-8.4h-3v-0.9h7.1v0.9h-3l0,8.4H239.6z"/>
	<path fill="#FFFFFF" d="M250.9,106.4c0.5,0,1,0,1.3,0.1c0.4,0.1,0.7,0.2,1,0.3l-0.2,0.9c-0.4-0.1-0.7-0.2-1.1-0.3
		c-0.3,0-0.6-0.1-0.9-0.1c-0.5,0-0.9,0.1-1.3,0.3c-0.4,0.2-0.7,0.4-0.9,0.8c-0.2,0.3-0.4,0.8-0.6,1.2c-0.1,0.5-0.2,1-0.2,1.6
		c0,0.5,0,1,0.1,1.5c0.1,0.5,0.2,0.9,0.5,1.2c0.2,0.3,0.5,0.6,0.9,0.8c0.4,0.2,0.9,0.3,1.5,0.3c0.1,0,0.3,0,0.4,0
		c0.2,0,0.4,0,0.6-0.1c0.2,0,0.4-0.1,0.6-0.1c0.2,0,0.4-0.1,0.6-0.1l0.2,0.8c-0.2,0.1-0.4,0.1-0.6,0.2c-0.2,0.1-0.4,0.1-0.7,0.1
		c-0.2,0-0.5,0.1-0.7,0.1c-0.2,0-0.5,0-0.7,0c-0.7,0-1.4-0.1-1.9-0.3c-0.5-0.2-0.9-0.5-1.2-1c-0.3-0.4-0.5-0.9-0.7-1.5
		c-0.1-0.6-0.2-1.2-0.2-1.9c0-0.3,0-0.7,0.1-1.1c0.1-0.4,0.1-0.7,0.3-1.1c0.1-0.4,0.3-0.7,0.5-1c0.2-0.3,0.5-0.6,0.8-0.9
		c0.3-0.2,0.7-0.4,1.1-0.6C249.9,106.5,250.4,106.4,250.9,106.4z"/>
	<path fill="#FFFFFF" d="M257.9,115.9v-9.3h1.2v3.9h1.6c0.1,0,0.3,0,0.5,0c0.2,0,0.3-0.1,0.5-0.2c0.1-0.1,0.3-0.3,0.4-0.4
		c0.1-0.2,0.2-0.4,0.3-0.8l0.6-2.4h1.1l-0.6,2.5c-0.1,0.5-0.3,0.8-0.5,1.1c-0.2,0.3-0.5,0.5-0.8,0.6c0.5,0.1,0.8,0.3,1.1,0.6
		c0.3,0.3,0.4,0.7,0.5,1.1l0.8,3.3h-1.1l-0.8-3c-0.1-0.3-0.2-0.6-0.4-0.8c-0.1-0.2-0.3-0.4-0.5-0.5c-0.2-0.1-0.3-0.2-0.5-0.2
		c-0.2,0-0.4-0.1-0.5-0.1H259v4.5H257.9z"/>
	<path fill="#FFFFFF" d="M275.5,106.6v9.3h-1.1v-7.5h0l-4.6,7.5h-1.1v-9.3h1.1l0,7.5h0l4.6-7.5L275.5,106.6z"/>
	<path fill="#FFFFFF" d="M280.4,115.9v-9.3h5.7v0.9h-4.5v3.1h3.8v0.8h-3.8v3.6h4.7v0.9H280.4z"/>
	<path fill="#FFFFFF" d="M305.1,107.4h-4.3v3h2.2c0.5,0,1,0.1,1.4,0.2c0.4,0.1,0.7,0.3,0.9,0.6c0.2,0.2,0.4,0.5,0.5,0.8
		c0.1,0.3,0.2,0.7,0.2,1c0,0.5-0.1,0.9-0.2,1.2c-0.1,0.3-0.3,0.6-0.6,0.9c-0.3,0.2-0.6,0.4-0.9,0.5c-0.3,0.1-0.7,0.2-1.1,0.2h-3.5
		v-9.3h5.5V107.4z M300.8,111.3v3.8h2.3c0.3,0,0.5,0,0.7-0.1c0.2-0.1,0.4-0.2,0.6-0.4c0.2-0.2,0.3-0.4,0.4-0.6
		c0.1-0.2,0.1-0.5,0.1-0.8c0-0.3-0.1-0.6-0.2-0.9c-0.1-0.2-0.3-0.4-0.4-0.6c-0.2-0.1-0.4-0.3-0.6-0.3c-0.2-0.1-0.5-0.1-0.8-0.1
		H300.8z"/>
	<path fill="#FFFFFF" d="M316.3,109.3c0,0.3,0,0.6-0.1,0.9c-0.1,0.3-0.2,0.6-0.4,0.9c-0.2,0.3-0.5,0.5-0.9,0.7
		c-0.4,0.2-0.8,0.3-1.3,0.3h-2l0,3.8h-1.2v-9.3h3c0.4,0,0.8,0.1,1.2,0.2c0.4,0.1,0.7,0.3,0.9,0.5c0.3,0.2,0.5,0.5,0.6,0.8
		C316.2,108.5,316.3,108.8,316.3,109.3z M311.5,107.5v3.7h1.8c0.2,0,0.4,0,0.6-0.1c0.2-0.1,0.4-0.2,0.6-0.3c0.2-0.1,0.3-0.3,0.4-0.6
		c0.1-0.2,0.1-0.5,0.1-0.9c0-0.3,0-0.6-0.1-0.8c-0.1-0.2-0.2-0.4-0.4-0.6c-0.2-0.2-0.4-0.3-0.6-0.3c-0.2-0.1-0.5-0.1-0.7-0.1H311.5z
		"/>
	<path fill="#FFFFFF" d="M327.5,106.6v9.3h-1.1v-7.5h0l-4.6,7.5h-1.1v-9.3h1.1l0,7.5h0l4.6-7.5L327.5,106.6z"/>
	<path fill="#FFFFFF" d="M337.8,115.9l0-8.4h-3l0,1c0,0.9-0.1,1.6-0.1,2.3c0,0.7-0.1,1.3-0.2,1.9c-0.1,0.5-0.2,1-0.3,1.4
		c-0.1,0.4-0.3,0.8-0.5,1.1c-0.2,0.3-0.5,0.5-0.8,0.7c-0.3,0.2-0.7,0.3-1.2,0.4l-0.2-0.8c0.5-0.2,0.9-0.4,1.2-0.7
		c0.3-0.3,0.5-0.6,0.6-1.1c0.1-0.5,0.2-1.1,0.3-1.9c0.1-0.8,0.1-1.7,0.2-2.9l0.1-2.2h5.2v9.3H337.8z"/>
	<path fill="#FFFFFF" d="M349.3,115.9l0-8.4h-3l0,1c0,0.9-0.1,1.6-0.1,2.3c0,0.7-0.1,1.3-0.2,1.9c-0.1,0.5-0.2,1-0.3,1.4
		c-0.1,0.4-0.3,0.8-0.5,1.1c-0.2,0.3-0.5,0.5-0.8,0.7c-0.3,0.2-0.7,0.3-1.2,0.4l-0.2-0.8c0.5-0.2,0.9-0.4,1.2-0.7
		c0.3-0.3,0.5-0.6,0.6-1.1c0.1-0.5,0.2-1.1,0.3-1.9c0.1-0.8,0.1-1.7,0.2-2.9l0.1-2.2h5.2v9.3H349.3z"/>
	<path fill="#FFFFFF" d="M362.3,106.6v9.3h-1.1v-7.5h0l-4.6,7.5h-1.1v-9.3h1.1l0,7.5h0l4.6-7.5L362.3,106.6z"/>
	<path fill="#FFFFFF" d="M372.6,115.9c-0.1-0.4-0.3-0.8-0.4-1.2c-0.1-0.4-0.3-0.8-0.4-1.2h-3.7c-0.1,0.4-0.3,0.8-0.4,1.2
		c-0.1,0.4-0.3,0.8-0.4,1.2h-1.2c0.6-1.7,1.1-3.3,1.6-4.9c0.5-1.5,1-3,1.5-4.5h1.5l3,9.3H372.6z M371.5,112.6
		c-0.2-0.7-0.4-1.4-0.6-2.1c-0.2-0.7-0.4-1.4-0.6-2.1l-0.3-0.9h0l-0.3,0.9c-0.1,0.3-0.2,0.7-0.3,1c-0.1,0.3-0.2,0.6-0.3,1
		c-0.1,0.3-0.2,0.7-0.3,1c-0.1,0.4-0.2,0.7-0.4,1.1H371.5z"/>
	<path fill="#FFFFFF" d="M383.3,115.9v-4.4h-4.4c0,0.7,0,1.5,0,2.2c0,0.7,0,1.5,0,2.2h-1.2v-9.3h1.2c0,0.7,0,1.3,0,2
		c0,0.6,0,1.3,0,2h4.4v-3.9h1.2v9.3H383.3z"/>
	<path fill="#FFFFFF" d="M391.5,115.9v-8.4h-3v-0.9h7.1v0.9h-3l0,8.4H391.5z"/>
	<path fill="#FFFFFF" d="M400.9,110.4h2.2c0.5,0,1,0.1,1.3,0.2c0.4,0.1,0.7,0.3,0.9,0.6c0.2,0.2,0.4,0.5,0.6,0.9
		c0.1,0.3,0.2,0.7,0.2,1.1c0,0.5-0.1,0.9-0.2,1.2c-0.1,0.3-0.3,0.6-0.6,0.8c-0.3,0.2-0.6,0.4-0.9,0.5c-0.3,0.1-0.7,0.2-1.1,0.2h-3.5
		v-9.3h1.1L400.9,110.4z M400.9,111.3v3.8h2.2c0.3,0,0.5,0,0.7-0.1c0.2-0.1,0.4-0.2,0.6-0.4c0.2-0.2,0.3-0.4,0.4-0.6
		c0.1-0.2,0.1-0.5,0.1-0.8c0-0.3-0.1-0.6-0.2-0.9c-0.1-0.2-0.3-0.4-0.5-0.6c-0.2-0.2-0.4-0.3-0.6-0.3c-0.2-0.1-0.5-0.1-0.7-0.1
		H400.9z M407.2,115.9v-9.3h1.1v9.3H407.2z"/>
</g>
</svg>
