<?xml version="1.0" encoding="utf-8"?>
<!-- Generator: Adobe Illustrator 19.0.0, SVG Export Plug-In . SVG Version: 6.00 Build 0)  -->
<svg version="1.1" id="Layer_2" xmlns="http://www.w3.org/2000/svg" xmlns:xlink="http://www.w3.org/1999/xlink" x="0px" y="0px"
	 viewBox="0 0 108 94" style="enable-background:new 0 0 108 94;" xml:space="preserve">
<style type="text/css">
	.st0{fill-rule:evenodd;clip-rule:evenodd;fill:#FFFFFF;}
</style>
<path class="st0" d="M34.7,43.2c2,8.9,9.4,17.4,15.2,14.8c4.6-2.1,9.6-11.4,8.3-20.1C55.6,19.7,30.5,25.2,34.7,43.2z M0.1,45.1
	c0-6,1.7-12.1,5-17.7c5.3-9,19.3-24.6,54.1-27.2C60.9,0,63.6,0,65.5,0C86,0,100.4,9.9,106,26c4,11.3,1.5,24-6.9,36
	C90.7,73.8,77.4,83.5,61.6,89c-9.3,3.3-18.7,5-28,5c-0.8,0-1.6,0-2.4,0l-1.4,0l0.9-1c0.1-0.1,6.6-7.4,10.7-12.9
	C22,78.3,8.8,71,3.1,58.8c-2-4.2-3-8.8-3-13.3V45.1z M44.1,76.7c-0.1,0-0.3,0-0.4,0c-18-2.2-30.5-8.9-36-20.1
	c-8.6-17.4,3.1-46.2,48.5-49.2C77.5,6,94.4,16,96.5,34.7c2.6,23-13.5,40-38.1,48.8c0.5-0.6,1-1.2,1.1-1.4
	C73.4,64.4,77.3,51,79.2,42.5c2-8.9,2.6-20.7,0.2-25.8c-0.6-1.3-2.7-2.3-5.4-2.9c-8.7-1.8-15.1,1.1-13.5,2.4
	c1.1,0.9,2.8,3.2,3.3,6.7c1.5,23-7.5,40.2-15.1,40.8c-3.8,0.3-9.7-3.5-14-11c-3.8-6.7-6.1-16-6.1-16c-1-4.7-2.3-6.8-4.9-7.3
	c-5.9-1.2-12.2,10.5-11,11.7c1.1,1.1,1.9,2.9,2.8,5c0,0,2.7,7.9,6.6,14.4c4.8,8.1,14.1,13.2,23.7,14.3C45.6,74.9,45,75.7,44.1,76.7z
	"/>
</svg>
