<?xml version="1.0" encoding="utf-8"?>
<!-- Generator: Adobe Illustrator 16.0.0, SVG Export Plug-In . SVG Version: 6.00 Build 0)  -->
<!DOCTYPE svg PUBLIC "-//W3C//DTD SVG 1.1//EN" "http://www.w3.org/Graphics/SVG/1.1/DTD/svg11.dtd">
<svg version="1.1" id="Layer_1" xmlns="http://www.w3.org/2000/svg" xmlns:xlink="http://www.w3.org/1999/xlink" x="0px" y="0px"
	 width="200px" height="200px" viewBox="0 0 200 200" enable-background="new 0 0 200 200" xml:space="preserve">
<g>
	<g>
		<path fill="#3AD6B0" d="M100,195.502c-52.66,0-95.502-42.842-95.502-95.502S47.34,4.498,100,4.498S195.502,47.34,195.502,100
			S152.66,195.502,100,195.502z"/>
	</g>
	<g>
		<path fill="#2A967A" d="M194.104,125.85l-47.099-47.098c-2.967-2.883-7.378-5.236-13.614-5.236
			c-6.086,0-10.422,2.277-13.465,5.236c-4.945,4.781-7.303,12.521-7.303,21.249c0,5.104,0.827,9.86,2.518,13.903l-35.6-35.606
			c-1.826-1.746-5.782-4.781-13.16-4.781c-7.227,0-11.563,2.657-13.997,5.236c-3.118,3.263-4.868,8.272-5.248,12.673l15.483,14.934
			c-0.017,0.156-0.035,0.313-0.049,0.468c-0.588,0.687-16.88,18.444-16.88,18.444l70.023,70.023
			C153.48,189.604,184.063,162.002,194.104,125.85z"/>
	</g>
	<g>
		<g>
			<path fill="#FFFFFF" d="M72.315,110.32c3.271-3.11,5.933-5.69,8.139-8.728c2.434-3.415,3.803-6.678,3.803-11.156
				c0-5.236-1.978-9.409-4.716-12.141c-1.826-1.746-5.782-4.781-13.16-4.781c-7.227,0-11.563,2.657-13.997,5.236
				c-3.118,3.263-4.868,8.272-5.248,12.673H58.85c0-1.973,0.76-4.705,2.129-6.223c0.989-1.062,2.435-1.821,4.641-1.821
				c1.977,0,3.651,0.532,4.64,1.442c1.217,1.139,1.978,3.111,1.978,5.008c0,3.491-1.902,6.754-3.042,8.575
				c-1.598,2.428-5.629,7.36-8.292,10.319L45.691,125.27h38.794v-9.867H66.99L72.315,110.32z M100.074,112.673
				c-3.879,0-6.921,3.036-6.921,6.905c0,3.87,3.042,6.906,6.921,6.906c3.88,0,6.923-3.036,6.923-6.906
				C106.997,115.709,103.954,112.673,100.074,112.673z M147.006,78.751c-2.967-2.883-7.378-5.236-13.615-5.236
				c-6.086,0-10.42,2.277-13.464,5.236c-4.944,4.781-7.303,12.521-7.303,21.249c0,8.65,2.356,16.316,7.303,21.171
				c3.044,2.961,7.378,5.236,13.464,5.236c6.237,0,10.648-2.353,13.615-5.236c4.944-4.854,7.303-12.521,7.303-21.171
				C154.309,91.273,151.95,83.532,147.006,78.751z M138.184,114.495c-1.369,1.289-2.74,1.896-4.718,1.896s-3.347-0.606-4.716-1.896
				c-3.575-3.491-4.26-10.625-4.26-14.571c0-3.566,0.531-10.851,4.26-14.494c1.369-1.29,2.738-1.897,4.716-1.897
				s3.349,0.607,4.718,1.897c3.728,3.643,4.26,10.928,4.26,14.494C142.441,103.87,141.758,111.004,138.184,114.495z"/>
		</g>
	</g>
	<path fill="#FFFFFF" d="M100,8.997c50.26,0,91.004,40.744,91.004,91.003S150.26,191.004,100,191.004S8.997,150.26,8.997,100
		S49.74,8.997,100,8.997 M100,0C73.29,0,48.177,10.402,29.29,29.29C10.402,48.177,0,73.29,0,100
		c0,26.711,10.402,51.823,29.29,70.711C48.177,189.6,73.29,200,100,200c26.711,0,51.823-10.4,70.711-29.289
		C189.598,151.823,200,126.711,200,100c0-26.71-10.402-51.823-29.289-70.71C151.823,10.402,126.711,0,100,0L100,0z"/>
</g>
</svg>
