<?xml version="1.0" encoding="utf-8"?>
<!-- Generator: Adobe Illustrator 18.1.1, SVG Export Plug-In . SVG Version: 6.00 Build 0)  -->
<svg version="1.1" id="Layer_1" xmlns="http://www.w3.org/2000/svg" xmlns:xlink="http://www.w3.org/1999/xlink" x="0px" y="0px"
	 viewBox="99 11 418 80" enable-background="new 99 11 418 80" xml:space="preserve">
<g>
	<g>
		<path fill-rule="evenodd" clip-rule="evenodd" fill="#FFFFFF" d="M279.6,62.3c0,0.1,0,0.1,0,0.2C279.6,62.7,279.6,62.7,279.6,62.3
			z M260.1,39.9h-2.4c0,0,0,0,0,0h-2.9c-10.8,0-19.5,8.6-19.5,19.2c0,4.1,0,0,0,3.1c0,10.6,8.7,19.2,19.5,19.2h2.4c0,0,0,0,0,0h2.9
			c10.7,0,19.4-8.5,19.5-19.1c0-0.5,0-2.2,0-3.3C279.6,48.5,270.9,39.9,260.1,39.9z M257.5,81.5c-1.5-0.1-2.6-1.1-2.6-2.4l0-36.9
			c0-1.2,1.2-2.3,2.6-2.4c1.5,0.1,2.6,1.1,2.6,2.4l0,36.9C260.1,80.4,258.9,81.4,257.5,81.5z M208.3,39.7v39.4
			c0,1.3-1.3,2.4-2.9,2.4h2.9c10.8,0,19.5-8.6,19.5-19.2V22.9c0-1.3,1.3-2.4,2.9-2.4h-2.9C217,20.5,208.3,29.1,208.3,39.7z
			 M310.9,39.7v39.4c0,1.3-1.2,2.3-2.7,2.4c-1.5-0.1-2.7-1.1-2.7-2.4c0-10.4,0-36.9,0-36.9c0-1.3,1.3-2.4,2.9-2.4h-2.9
			c-10.8,0-19.5,8.6-19.5,19.2c0,4.1,0,0,0,3.1c0,10.6,8.7,19.2,19.5,19.2h5.3c10.8,0,19.5-8.6,19.5-19.2V22.9
			c0-1.3,1.3-2.4,2.9-2.4h-2.9C319.6,20.5,310.9,29.1,310.9,39.7z M356.3,20.5c-10.8,0-19.5,8.6-19.5,19.2v39.4
			c0,1.3-1.3,2.4-2.9,2.4h2.9c10.8,0,19.5-8.6,19.5-19.2V22.9c0-1.3,1.3-2.4,2.9-2.4H356.3z M202.8,59.4V39.7
			c0-10.6-8.7-19.3-19.5-19.3h-2.8c1.6,0,3,1.1,3,2.4v19.7c0,10.6,8.5,19.3,19.3,19.3h2.8C204.1,61.8,202.8,60.8,202.8,59.4z
			 M431.6,79.1v-20c0-10.6-8.7-19.3-19.5-19.3h-2.4c0,0-0.3,0-0.4,0c-0.1,0-0.2,0-0.2,0h-2.2c-10.8,0-19.5,8.6-19.5,19.2
			c0,4.1,0,0,0,3.1c0,10.6,8.7,19.2,19.5,19.2h2.2c0,0,0.6,0,0.6,0c-1.6,0-2.9-1.1-2.9-2.4c0-10.4,0-32.5,0-35.5v-1.4
			c0-1.2,1.2-2.3,2.6-2.4c1.5,0.1,2.8,1.1,2.8,2.4v20c0,10.6,8.5,19.3,19.3,19.3h2.8C432.9,81.5,431.6,80.4,431.6,79.1z M379.8,79.1
			v-20c0-10.6-8.7-19.3-19.5-19.3h-2.8c1.6,0,3,1.1,3,2.4v20c0,10.6,8.5,19.3,19.3,19.3h2.8C381.1,81.5,379.8,80.4,379.8,79.1z"/>
	</g>
</g>
</svg>
