<?xml version="1.0" encoding="utf-8"?>
<!-- Generator: Adobe Illustrator 18.1.1, SVG Export Plug-In . SVG Version: 6.00 Build 0)  -->
<svg version="1.1" id="Layer_1" xmlns="http://www.w3.org/2000/svg" xmlns:xlink="http://www.w3.org/1999/xlink" x="0px" y="0px"
	 viewBox="99 11 418 80" enable-background="new 99 11 418 80" xml:space="preserve">
<g>
	<g>
		<path fill="#FFFFFF" d="M179.2,75.1h7.4V52.2h16v-6.9h-16V33.8h16.6v-6.9h-24V75.1z M237.6,56c0,2.8-0.1,5.7-1.4,8.3
			c-1.8,3.4-5.2,4.9-8.9,4.9c-4.5,0-7.5-2.3-8.9-4.9c-1.4-2.5-1.4-5.7-1.4-8.3v-29h-7.4v31c0,3.9,0.8,8.5,4.5,12.5
			c2.5,2.8,6.7,5.6,13.3,5.6s10.8-2.8,13.3-5.6c3.6-4.1,4.5-8.7,4.5-12.5v-31h-7.4V56z M281.2,41.1c0-3.2-1.1-8.3-5.7-11.3
			c-4-2.7-8.8-2.8-12.7-2.8h-8.6v48.1h7.4V55.3h1.2l13.7,19.7h8.9l-15-20.6C276.8,53.1,281.2,48,281.2,41.1z M261.7,49V33.8h2.5
			c3.5,0,9.7,0.5,9.7,7.4c0,7.7-7.9,7.8-9.9,7.8H261.7z M290.7,75.1h7.4V26.9h-7.4V75.1z M330.1,26c-14.3,0-25,10.9-25,25.1
			c0,14,10.6,25,25,25c14.4,0,25-10.9,25-25C355.1,36.9,344.4,26,330.1,26z M330.1,69.2c-10.2,0-17.3-7.5-17.3-18.1
			c0-10.7,7.1-18.2,17.3-18.2c10.2,0,17.3,7.6,17.3,18.2C347.4,61.7,340.3,69.2,330.1,69.2z M390.3,56c0,2.8-0.1,5.7-1.4,8.3
			c-1.8,3.4-5.2,4.9-8.9,4.9c-4.5,0-7.5-2.3-8.9-4.9c-1.4-2.5-1.4-5.7-1.4-8.3v-29h-7.4v31c0,3.9,0.8,8.5,4.5,12.5
			c2.5,2.8,6.7,5.6,13.3,5.6c6.6,0,10.8-2.8,13.3-5.6c3.6-4.1,4.5-8.7,4.5-12.5v-31h-7.4V56z M423.7,46.4l-4.8-1.9
			c-2.3-0.9-5.1-2.5-5.1-5.9c0-3.6,3-5.7,6.9-5.7c2,0,3.5,0.4,5,1.7c1,0.9,1.7,1.9,2.2,3l5.9-3.4c-1.2-2.3-2.6-3.9-3.7-4.9
			c-1.8-1.6-4.6-3.3-9.6-3.3c-7.5,0-14.1,5-14.1,12.8c0,6.7,4.9,10,9.8,12.2l4.6,2c3,1.3,6.9,3.4,6.9,8.2c0,4.1-2.5,8-8,8
			c-2.5,0-4.5-0.6-6.2-2.8c-1.2-1.5-2-3.8-2.1-6.1l-7.3,1.6c0.5,4.4,2.4,7.5,4,9.4c2.9,3.3,6.7,4.9,11.3,4.9
			c9.1,0,15.6-6.3,15.6-15.4C435.1,51.9,428.5,48.2,423.7,46.4z"/>
	</g>
</g>
</svg>
